<?xml version="1.0" encoding="UTF-8" standalone="no"?>
<svg
   width="313.67001"
   height="67.961304"
   viewBox="0 0 313.67001 67.961304"
   fill="none"
   version="1.1"
   id="svg466"
   sodipodi:docname="WeRaGlobal2.svg"
   inkscape:version="1.1.2 (0a00cf5339, 2022-02-04)"
   xmlns:inkscape="http://www.inkscape.org/namespaces/inkscape"
   xmlns:sodipodi="http://sodipodi.sourceforge.net/DTD/sodipodi-0.dtd"
   xmlns="http://www.w3.org/2000/svg"
   xmlns:svg="http://www.w3.org/2000/svg">
  <defs
     id="defs470" />
  <sodipodi:namedview
     id="namedview468"
     pagecolor="#ffffff"
     bordercolor="#666666"
     borderopacity="1.0"
     inkscape:pageshadow="2"
     inkscape:pageopacity="0.0"
     inkscape:pagecheckerboard="0"
     showgrid="false"
     inkscape:zoom="2.021148"
     inkscape:cx="245.65247"
     inkscape:cy="56.403587"
     inkscape:window-width="1536"
     inkscape:window-height="827"
     inkscape:window-x="2192"
     inkscape:window-y="0"
     inkscape:window-maximized="1"
     inkscape:current-layer="svg466" />
  <path
     d="m 233.758,13.047 1.11,13.32 -0.444,-1.887 c 1.332,-2.812 3.145,-5.217 5.439,-7.215 2.368,-2.072 4.773,-3.626 7.215,-4.662 2.442,-1.11 4.44,-1.665 5.994,-1.665 l -0.555,12.432 c -3.552,-0.296 -6.66,0.37 -9.324,1.998 -2.59,1.554 -4.625,3.626 -6.105,6.216 -1.406,2.59 -2.109,5.328 -2.109,8.214 V 60 H 222.547 V 13.047 Z m 50.497,48.174 c -4.44,0 -8.473,-0.925 -12.099,-2.775 -3.552,-1.85 -6.364,-4.588 -8.436,-8.214 -2.072,-3.7 -3.108,-8.251 -3.108,-13.653 0,-5.328 1.073,-9.879 3.219,-13.653 2.22,-3.848 5.106,-6.808 8.658,-8.88 3.626,-2.072 7.548,-3.108 11.766,-3.108 4.514,0 8.14,0.888 10.878,2.664 2.812,1.776 4.995,3.885 6.549,6.327 l -0.666,1.776 1.221,-8.658 H 313.67 V 60 H 301.238 V 48.567 l 1.221,2.997 c -0.296,0.444 -0.888,1.184 -1.776,2.22 -0.888,0.962 -2.109,2.035 -3.663,3.219 -1.554,1.184 -3.404,2.183 -5.55,2.997 -2.072,0.814 -4.477,1.221 -7.215,1.221 z m 3.441,-10.212 c 2.22,0 4.218,-0.407 5.994,-1.221 1.85,-0.814 3.404,-1.961 4.662,-3.441 1.332,-1.48 2.294,-3.256 2.886,-5.328 V 30.807 c -0.592,-1.924 -1.554,-3.589 -2.886,-4.995 -1.332,-1.48 -2.96,-2.627 -4.884,-3.441 -1.85,-0.814 -3.922,-1.221 -6.216,-1.221 -2.516,0 -4.847,0.629 -6.993,1.887 -2.146,1.258 -3.885,2.997 -5.217,5.217 -1.258,2.22 -1.887,4.773 -1.887,7.659 0,2.812 0.666,5.365 1.998,7.659 1.332,2.294 3.108,4.107 5.328,5.439 2.22,1.332 4.625,1.998 7.215,1.998 z"
     fill="#f3d295"
     id="path394" />
  <path
     d="M 45.6893,0.4094 H 24.3102 c 0.1351,-0.045 0.2722,-0.088 0.4094,-0.129 C 25.0369,0.1822 25.3583,0.088 25.6796,0 h 18.6402 c 0.3214,0.088 0.6428,0.1822 0.9601,0.2804 0.1371,0.041 0.2743,0.084 0.4094,0.129 z"
     fill="#f2b035"
     id="path396" />
  <path
     d="M 50.7004,2.4565 H 19.2991 c 0.0839,-0.045 0.1699,-0.086 0.2559,-0.129 0.221,-0.1084 0.4421,-0.2149 0.6652,-0.3172 h 29.559 c 0.2232,0.1023 0.4442,0.2088 0.6653,0.3172 0.086,0.043 0.172,0.084 0.2559,0.129 z"
     fill="#f2b035"
     id="path398" />
  <path
     d="M 54.2391,4.5026 H 15.7612 c 0.0635,-0.045 0.129,-0.0859 0.1945,-0.1289 0.1842,-0.1208 0.3685,-0.2395 0.5568,-0.3542 h 36.9733 c 0.1883,0.1147 0.3726,0.2334 0.5589,0.3542 0.0655,0.043 0.1289,0.0839 0.1944,0.1289 z"
     fill="#f2b035"
     id="path400" />
  <path
     d="M 57.0358,6.5503 H 12.9634 c 0.0532,-0.043 0.1064,-0.086 0.1596,-0.129 0.1659,-0.131 0.3296,-0.264 0.4995,-0.393 h 42.7541 c 0.1699,0.129 0.3337,0.262 0.4995,0.393 0.0532,0.043 0.1065,0.086 0.1597,0.129 z"
     fill="#f2b035"
     id="path402" />
  <path
     d="M 59.3441,8.5974 H 10.6577 c 0.043,-0.045 0.086,-0.086 0.131,-0.129 0.1433,-0.1371 0.2887,-0.2743 0.436,-0.4094 0.0082,-0.0061 0.0144,-0.0143 0.0226,-0.0204 h 47.5073 c 0,0 0.0143,0.0143 0.0225,0.0204 0.1474,0.1351 0.2927,0.2723 0.436,0.4094 0.045,0.043 0.088,0.084 0.131,0.129 z"
     fill="#f2b035"
     id="path404" />
  <path
     d="M 61.2963,10.6448 H 8.70422 c 0.03685,-0.043 0.0737,-0.086 0.11259,-0.129 0.12282,-0.1372 0.24564,-0.2743 0.37051,-0.4094 0.01842,-0.0184 0.0348,-0.0389 0.05322,-0.0573 H 60.76 c 0.0184,0.0184 0.0348,0.0389 0.0532,0.0573 0.1249,0.1351 0.2477,0.2722 0.3706,0.4094 0.0389,0.043 0.0757,0.086 0.1125,0.129 z"
     fill="#f2b035"
     id="path406" />
  <path
     d="M 62.9624,12.6911 H 7.03772 c 0.03071,-0.043 0.06346,-0.086 0.09621,-0.1289 0.1044,-0.1372 0.2088,-0.2743 0.31524,-0.4094 0.02457,-0.0307 0.04913,-0.0635 0.07574,-0.0942 H 62.4752 c 0.0266,0.0307 0.0512,0.0635 0.0757,0.0942 0.1065,0.1351 0.2109,0.2722 0.3153,0.4094 0.0327,0.0429 0.0655,0.0859 0.0962,0.1289 z"
     fill="#f2b035"
     id="path408" />
  <path
     d="M 64.3976,14.7387 H 5.60303 c 0.02866,-0.043 0.05527,-0.086 0.08393,-0.129 0.09006,-0.1371 0.18013,-0.2743 0.27225,-0.4094 0.0307,-0.0429 0.05936,-0.088 0.09007,-0.131 H 63.9514 c 0.0307,0.043 0.0593,0.0881 0.09,0.131 0.0922,0.1351 0.1822,0.2723 0.2723,0.4094 0.0287,0.043 0.0553,0.086 0.0839,0.129 z"
     fill="#f2b035"
     id="path410" />
  <path
     d="M 65.6269,16.7856 H 4.37585 c 0.02252,-0.043 0.04709,-0.086 0.07165,-0.129 0.07574,-0.1371 0.15353,-0.2743 0.23131,-0.4094 0.03276,-0.0573 0.06551,-0.1126 0.09826,-0.1679 H 65.2257 c 0.0327,0.0553 0.0655,0.1106 0.0982,0.1679 0.0778,0.1351 0.1556,0.2723 0.2313,0.4094 0.0246,0.043 0.0492,0.086 0.0717,0.129 z"
     fill="#f2b035"
     id="path412" />
  <path
     d="M 66.6751,18.8328 H 3.32385 c 0.02047,-0.043 0.04094,-0.086 0.06141,-0.129 0.06551,-0.1371 0.13101,-0.2743 0.19856,-0.4094 0.0348,-0.0696 0.06756,-0.1392 0.1044,-0.2068 H 66.3128 c 0.0348,0.0676 0.0676,0.1372 0.1024,0.2068 0.0675,0.1351 0.133,0.2723 0.1985,0.4094 0.0205,0.043 0.041,0.086 0.0614,0.129 z"
     fill="#f2b035"
     id="path414" />
  <path
     d="M 67.5632,20.8796 H 2.43921 c 0.01638,-0.043 0.0348,-0.086 0.05117,-0.1289 0.05527,-0.1372 0.11054,-0.2743 0.16786,-0.4094 0.03275,-0.0819 0.06755,-0.1618 0.10235,-0.2436 H 67.2418 c 0.0348,0.0818 0.0696,0.1617 0.1024,0.2436 0.0573,0.1351 0.1126,0.2722 0.1678,0.4094 0.0164,0.0429 0.0348,0.0859 0.0512,0.1289 z"
     fill="#f2b035"
     id="path416" />
  <path
     d="M 68.2954,22.9265 H 1.70166 c 0.01228,-0.043 0.02661,-0.086 0.04094,-0.129 0.04504,-0.1371 0.09007,-0.2743 0.13715,-0.4094 0.03275,-0.0942 0.06346,-0.1863 0.09621,-0.2804 H 68.0211 c 0.0328,0.0941 0.0635,0.1862 0.0962,0.2804 0.0471,0.1351 0.0921,0.2723 0.1372,0.4094 0.0143,0.043 0.0286,0.086 0.0409,0.129 z"
     fill="#f2b035"
     id="path418" />
  <path
     d="M 68.8942,24.9733 H 1.10498 C 1.11522,24.9303 1.1275,24.8874 1.13773,24.8444 1.17458,24.7072 1.21143,24.5701 1.24827,24.435 1.27693,24.3285 1.30764,24.2241 1.33834,24.1177 H 68.6608 c 0.0308,0.1064 0.0615,0.2108 0.0901,0.3173 0.0369,0.1351 0.0737,0.2722 0.1106,0.4094 0.0102,0.043 0.0225,0.0859 0.0327,0.1289 z"
     fill="#f2b035"
     id="path420" />
  <path
     d="M 69.3579,27.0212 H 0.643433 c 0.008188,-0.043 0.016376,-0.086 0.024564,-0.129 0.026611,-0.1371 0.05527,-0.2743 0.083928,-0.4094 C 0.776489,26.3641 0.8031,26.2453 0.829712,26.1287 H 69.1716 c 0.0266,0.1166 0.0533,0.2354 0.0778,0.3541 0.0287,0.1351 0.0573,0.2723 0.084,0.4094 0.0081,0.043 0.0163,0.086 0.0245,0.129 z"
     fill="#f2b035"
     id="path422" />
  <path
     d="M 69.6931,29.0671 H 0.307251 c 0.004094,-0.0429 0.010235,-0.0859 0.016376,-0.1289 0.018423,-0.1372 0.038894,-0.2743 0.059364,-0.4094 0.02047,-0.131 0.04094,-0.262 0.061411,-0.3931 H 69.556 c 0.0205,0.1311 0.0409,0.2621 0.0614,0.3931 0.0205,0.1351 0.0409,0.2722 0.0594,0.4094 0.0061,0.043 0.0123,0.086 0.0163,0.1289 z"
     fill="#f2b035"
     id="path424" />
  <path
     d="M 69.9058,31.115 H 0.0941162 C 0.0982103,31.072 0.100257,31.029 0.104351,30.986 0.114586,30.8489 0.124822,30.7117 0.139151,30.5766 0.151433,30.4333 0.165762,30.29 0.180091,30.1467 H 69.8198 c 0.0143,0.1433 0.0287,0.2866 0.041,0.4299 0.0143,0.1351 0.0245,0.2723 0.0348,0.4094 0.0041,0.043 0.0061,0.086 0.0102,0.129 z"
     fill="#f2b035"
     id="path426" />
  <path
     d="M 69.9984,33.1618 H 0.00244141 c 0,-0.043 0,-0.0859 0.00204702,-0.1289 0,-0.1372 0.00614107,-0.2743 0.01023507,-0.4094 0.0040941,-0.1556 0.0102352,-0.3112 0.0163762,-0.4668 H 69.9697 c 0.0061,0.1556 0.0123,0.3112 0.0164,0.4668 0.0041,0.1351 0.0082,0.2722 0.0102,0.4094 0.0021,0.043 0.0021,0.0859 0.0021,0.1289 z"
     fill="#f2b035"
     id="path428" />
  <path
     d="m 70,34.167 c 0,0.1678 -0.0041,0.3357 -0.0082,0.5036 -0.0041,0.1371 -0.0082,0.2743 -0.0143,0.4094 -0.0021,0.043 -0.0021,0.0859 -0.0062,0.1289 H 0.0286583 C 0.0245643,35.1659 0.0245643,35.123 0.0225173,35.08 0.0163762,34.9449 0.0122821,34.8077 0.00818809,34.6706 0.00409405,34.5027 0,34.3348 0,34.167 Z"
     fill="#f2b035"
     id="path430" />
  <path
     d="m 69.9199,36.1768 c -0.0123,0.1801 -0.0245,0.3602 -0.0409,0.5404 -0.0102,0.1371 -0.0225,0.2743 -0.0369,0.4094 -0.004,0.043 -0.0081,0.086 -0.0122,0.1289 H 0.169659 C 0.165565,37.2126 0.161471,37.1696 0.157377,37.1266 0.143048,36.9915 0.130765,36.8543 0.12053,36.7172 0.104154,36.537 0.091872,36.3569 0.0795898,36.1768 Z"
     fill="#f2b035"
     id="path432" />
  <path
     d="m 69.724,38.187 c -0.0225,0.1945 -0.0491,0.3849 -0.0777,0.5773 -0.0185,0.1371 -0.0389,0.2743 -0.0594,0.4094 -0.0061,0.043 -0.0143,0.086 -0.0205,0.1289 H 0.434354 C 0.428213,39.2597 0.420025,39.2167 0.413884,39.1737 0.393414,39.0386 0.372943,38.9014 0.35452,38.7643 0.325862,38.5719 0.299251,38.3815 0.276733,38.187 Z"
     fill="#f2b035"
     id="path434" />
  <path
     d="m 69.4097,40.1953 c -0.0369,0.2068 -0.0778,0.4115 -0.1188,0.6162 -0.0286,0.1371 -0.0573,0.2743 -0.0859,0.4094 -0.0103,0.043 -0.0185,0.0859 -0.0287,0.1289 H 0.822106 C 0.811871,41.3068 0.803683,41.2639 0.793447,41.2209 0.764789,41.0858 0.736131,40.9486 0.707472,40.8115 0.666532,40.6068 0.625592,40.4021 0.588745,40.1953 Z"
     fill="#f2b035"
     id="path436" />
  <path
     d="m 68.9743,42.2053 c -0.0532,0.2191 -0.1106,0.436 -0.1679,0.653 -0.0368,0.1372 -0.0737,0.2743 -0.1126,0.4094 -0.0123,0.043 -0.0245,0.086 -0.0368,0.129 H 1.34268 C 1.3304,43.3537 1.31811,43.3107 1.30583,43.2677 1.26694,43.1326 1.23009,42.9955 1.19325,42.8583 1.13593,42.6413 1.07861,42.4244 1.02539,42.2053 Z"
     fill="#f2b035"
     id="path438" />
  <path
     d="m 68.4123,44.2153 c -0.0717,0.2313 -0.1454,0.4606 -0.2232,0.6899 -0.045,0.1371 -0.0921,0.2722 -0.1412,0.4094 -0.0143,0.043 -0.0307,0.086 -0.0451,0.1289 H 1.99864 C 1.98431,45.4006 1.96793,45.3576 1.9536,45.3146 1.90447,45.1774 1.85739,45.0423 1.81236,44.9052 1.73457,44.6759 1.66088,44.4466 1.58923,44.2153 Z"
     fill="#f2b035"
     id="path440" />
  <path
     d="m 67.7133,46.2261 c -0.0921,0.2436 -0.1862,0.4851 -0.2845,0.7267 -0.0553,0.1371 -0.1126,0.2743 -0.1699,0.4094 -0.0184,0.043 -0.0369,0.0859 -0.0553,0.1289 H 2.79813 C 2.77971,47.4481 2.76129,47.4052 2.74286,47.3622 2.6835,47.2271 2.62618,47.0899 2.57091,46.9528 2.47266,46.7112 2.37849,46.4697 2.28638,46.2261 Z"
     fill="#f2b035"
     id="path442" />
  <path
     d="m 66.8769,48.2356 c -0.1167,0.2559 -0.2375,0.5097 -0.3603,0.7635 -0.0655,0.1372 -0.1331,0.2743 -0.2006,0.4094 -0.0225,0.043 -0.043,0.086 -0.0655,0.129 H 3.75078 C 3.72826,49.4945 3.70779,49.4515 3.68527,49.4085 3.61772,49.2734 3.55017,49.1363 3.48467,48.9991 3.36184,48.7453 3.24107,48.4915 3.12439,48.2356 Z"
     fill="#f2b035"
     id="path444" />
  <path
     d="m 65.8796,50.2444 c -0.1433,0.2702 -0.2907,0.5384 -0.4421,0.8024 -0.0778,0.1372 -0.1577,0.2743 -0.2375,0.4094 -0.0246,0.043 -0.0512,0.086 -0.0778,0.129 H 4.87422 C 4.84761,51.5422 4.821,51.4992 4.79643,51.4562 4.7166,51.3211 4.63677,51.184 4.55898,51.0468 4.4075,50.7828 4.26011,50.5146 4.11682,50.2444 Z"
     fill="#f2b035"
     id="path446" />
  <path
     d="m 64.7204,52.2544 c -0.1781,0.2825 -0.3582,0.5609 -0.5425,0.8393 -0.09,0.1371 -0.1821,0.2743 -0.2763,0.4094 -0.0287,0.043 -0.0594,0.086 -0.0901,0.1289 H 6.18781 C 6.1571,53.5891 6.1264,53.5461 6.09774,53.5031 6.00358,53.368 5.91146,53.2308 5.82139,53.0937 5.63716,52.8153 5.45702,52.5369 5.27893,52.2544 Z"
     fill="#f2b035"
     id="path448" />
  <path
     d="m 63.367,54.2646 c -0.217,0.2948 -0.436,0.5875 -0.6591,0.8762 -0.1044,0.1371 -0.2109,0.2743 -0.3214,0.4094 -0.0348,0.043 -0.0696,0.086 -0.1044,0.1289 H 7.71664 C 7.68184,55.6362 7.64704,55.5932 7.61224,55.5502 7.5017,55.4151 7.39525,55.2779 7.29085,55.1408 7.06773,54.8521 6.8487,54.5594 6.63171,54.2646 Z"
     fill="#f2b035"
     id="path450" />
  <path
     d="m 61.7934,56.2747 c -0.2579,0.3091 -0.524,0.6141 -0.7942,0.9129 -0.1229,0.1372 -0.2477,0.2743 -0.3747,0.4094 -0.0409,0.043 -0.0818,0.086 -0.1228,0.129 H 9.49809 C 9.45715,57.683 9.41621,57.64 9.37527,57.597 9.24836,57.4619 9.12349,57.3248 9.00067,57.1876 8.73046,56.8888 8.46435,56.5838 8.20642,56.2747 Z"
     fill="#f2b035"
     id="path452" />
  <path
     d="m 59.962,58.2847 c -0.3152,0.3234 -0.6386,0.6386 -0.9682,0.9498 -0.1453,0.1392 -0.2927,0.2743 -0.4401,0.4094 -0.0471,0.043 -0.0962,0.088 -0.1453,0.129 H 11.5888 c -0.0491,-0.041 -0.0982,-0.086 -0.1453,-0.129 -0.1474,-0.1351 -0.2948,-0.2702 -0.4401,-0.4094 -0.3296,-0.3112 -0.653,-0.6264 -0.9682,-0.9498 z"
     fill="#f2b035"
     id="path454" />
  <path
     d="m 57.818,60.2949 c -0.391,0.3378 -0.7922,0.6674 -1.1975,0.9867 -0.1781,0.1392 -0.3542,0.2763 -0.5343,0.4094 -0.0573,0.043 -0.1146,0.088 -0.174,0.129 H 14.0874 c -0.0593,-0.041 -0.1167,-0.086 -0.174,-0.129 -0.1801,-0.1331 -0.3562,-0.2702 -0.5343,-0.4094 -0.4053,-0.3193 -0.8065,-0.6489 -1.1975,-0.9867 z"
     fill="#f2b035"
     id="path456" />
  <path
     d="m 55.2503,62.303 c -0.4975,0.3582 -1.0072,0.698 -1.5251,1.0255 -0.217,0.1392 -0.438,0.2764 -0.6591,0.4094 -0.0717,0.043 -0.1454,0.086 -0.217,0.129 h -35.696 c -0.0716,-0.043 -0.1453,-0.086 -0.217,-0.129 C 16.715,63.6049 16.494,63.4677 16.277,63.3285 15.7591,63.001 15.2494,62.6612 14.752,62.303 Z"
     fill="#f2b035"
     id="path458" />
  <path
     d="m 52.0722,64.3137 c -0.6714,0.3767 -1.3551,0.7308 -2.0511,1.0624 -0.2948,0.1413 -0.5936,0.2764 -0.8946,0.4094 -0.0982,0.043 -0.1985,0.0881 -0.2988,0.129 H 21.1724 c -0.1003,-0.0409 -0.2006,-0.086 -0.2989,-0.129 -0.3009,-0.133 -0.5998,-0.2681 -0.8945,-0.4094 -0.696,-0.3316 -1.3797,-0.6857 -2.0511,-1.0624 z"
     fill="#f2b035"
     id="path460" />
  <path
     d="m 47.8366,66.3237 c -1.0583,0.4197 -2.1432,0.7861 -3.2486,1.0993 -0.522,0.1494 -1.0481,0.2866 -1.5803,0.4094 -0.1924,0.045 -0.3849,0.088 -0.5793,0.1289 H 27.5711 c -0.1945,-0.0409 -0.3869,-0.0839 -0.5793,-0.1289 -0.5323,-0.1228 -1.0583,-0.26 -1.5803,-0.4094 -1.1054,-0.3132 -2.1903,-0.6796 -3.2487,-1.0993 z"
     fill="#f2b035"
     id="path462" />
  <path
     d="m 121.182,13.047 12.321,28.527 -2.331,0.222 11.211,-28.749 h 12.21 L 133.17,62.775 118.074,31.029 104.31,62.775 82.665,13.047 h 12.21 l 13.209,30.192 -4.329,-0.777 9.879,-22.422 -3.219,-6.993 z m 64.715,48.174 c -5.55,0 -10.286,-1.073 -14.208,-3.219 -3.922,-2.146 -6.919,-5.106 -8.991,-8.88 -2.072,-3.848 -3.108,-8.177 -3.108,-12.987 0,-4.736 1.184,-8.991 3.552,-12.765 2.368,-3.774 5.55,-6.771 9.546,-8.991 4.07,-2.294 8.547,-3.441 13.431,-3.441 6.438,0 11.729,1.887 15.873,5.661 4.218,3.7 7.03,8.954 8.436,15.762 l -37.851,12.765 -2.886,-6.993 29.526,-10.545 -2.553,1.443 c -0.814,-2.22 -2.146,-4.144 -3.996,-5.772 -1.776,-1.628 -4.292,-2.442 -7.548,-2.442 -2.59,0 -4.884,0.629 -6.882,1.887 -1.998,1.184 -3.589,2.886 -4.773,5.106 -1.11,2.146 -1.665,4.699 -1.665,7.659 0,3.034 0.629,5.698 1.887,7.992 1.258,2.294 2.96,4.07 5.106,5.328 2.146,1.184 4.588,1.776 7.326,1.776 1.924,0 3.774,-0.333 5.55,-0.999 1.776,-0.666 3.441,-1.554 4.995,-2.664 l 5.661,9.213 c -2.442,1.554 -5.143,2.812 -8.103,3.774 -2.886,0.888 -5.661,1.332 -8.325,1.332 z"
     fill="#f2b035"
     id="path464" />
</svg>
