<svg width="331" height="86" viewBox="0 0 331 86" fill="none" xmlns="http://www.w3.org/2000/svg">
<path d="M233.758 31.047L234.868 44.367L234.424 42.48C235.756 39.668 237.569 37.263 239.863 35.265C242.231 33.193 244.636 31.639 247.078 30.603C249.52 29.493 251.518 28.938 253.072 28.938L252.517 41.37C248.965 41.074 245.857 41.74 243.193 43.368C240.603 44.922 238.568 46.994 237.088 49.584C235.682 52.174 234.979 54.912 234.979 57.798V78H222.547V31.047H233.758ZM284.255 79.221C279.815 79.221 275.782 78.296 272.156 76.446C268.604 74.596 265.792 71.858 263.72 68.232C261.648 64.532 260.612 59.981 260.612 54.579C260.612 49.251 261.685 44.7 263.831 40.926C266.051 37.078 268.937 34.118 272.489 32.046C276.115 29.974 280.037 28.938 284.255 28.938C288.769 28.938 292.395 29.826 295.133 31.602C297.945 33.378 300.128 35.487 301.682 37.929L301.016 39.705L302.237 31.047H313.67V78H301.238V66.567L302.459 69.564C302.163 70.008 301.571 70.748 300.683 71.784C299.795 72.746 298.574 73.819 297.02 75.003C295.466 76.187 293.616 77.186 291.47 78C289.398 78.814 286.993 79.221 284.255 79.221ZM287.696 69.009C289.916 69.009 291.914 68.602 293.69 67.788C295.54 66.974 297.094 65.827 298.352 64.347C299.684 62.867 300.646 61.091 301.238 59.019V48.807C300.646 46.883 299.684 45.218 298.352 43.812C297.02 42.332 295.392 41.185 293.468 40.371C291.618 39.557 289.546 39.15 287.252 39.15C284.736 39.15 282.405 39.779 280.259 41.037C278.113 42.295 276.374 44.034 275.042 46.254C273.784 48.474 273.155 51.027 273.155 53.913C273.155 56.725 273.821 59.278 275.153 61.572C276.485 63.866 278.261 65.679 280.481 67.011C282.701 68.343 285.106 69.009 287.696 69.009Z" fill="#F3D295"/>
<path d="M45.6893 18.4094H24.3102C24.4453 18.3644 24.5824 18.3214 24.7196 18.2804C25.0369 18.1822 25.3583 18.088 25.6796 18H44.3198C44.6412 18.088 44.9626 18.1822 45.2799 18.2804C45.417 18.3214 45.5542 18.3644 45.6893 18.4094Z" fill="#F2B035"/>
<path d="M50.7004 20.4565H19.2991C19.383 20.4115 19.469 20.3705 19.555 20.3275C19.776 20.2191 19.9971 20.1126 20.2202 20.0103H49.7792C50.0024 20.1126 50.2234 20.2191 50.4445 20.3275C50.5305 20.3705 50.6165 20.4115 50.7004 20.4565Z" fill="#F2B035"/>
<path d="M54.2391 22.5026H15.7612C15.8247 22.4576 15.8902 22.4167 15.9557 22.3737C16.1399 22.2529 16.3242 22.1342 16.5125 22.0195H53.4858C53.6741 22.1342 53.8584 22.2529 54.0447 22.3737C54.1102 22.4167 54.1736 22.4576 54.2391 22.5026Z" fill="#F2B035"/>
<path d="M57.0358 24.5503H12.9634C13.0166 24.5073 13.0698 24.4643 13.123 24.4213C13.2889 24.2903 13.4526 24.1573 13.6225 24.0283H56.3766C56.5465 24.1573 56.7103 24.2903 56.8761 24.4213C56.9293 24.4643 56.9826 24.5073 57.0358 24.5503Z" fill="#F2B035"/>
<path d="M59.3441 26.5974H10.6577C10.7007 26.5524 10.7437 26.5114 10.7887 26.4684C10.932 26.3313 11.0774 26.1941 11.2247 26.059C11.2329 26.0529 11.2391 26.0447 11.2473 26.0386H58.7546C58.7546 26.0386 58.7689 26.0529 58.7771 26.059C58.9245 26.1941 59.0698 26.3313 59.2131 26.4684C59.2581 26.5114 59.3011 26.5524 59.3441 26.5974Z" fill="#F2B035"/>
<path d="M61.2963 28.6448H8.70422C8.74107 28.6018 8.77792 28.5588 8.81681 28.5158C8.93963 28.3786 9.06245 28.2415 9.18732 28.1064C9.20574 28.088 9.22212 28.0675 9.24054 28.0491H60.76C60.7784 28.0675 60.7948 28.088 60.8132 28.1064C60.9381 28.2415 61.0609 28.3786 61.1838 28.5158C61.2227 28.5588 61.2595 28.6018 61.2963 28.6448Z" fill="#F2B035"/>
<path d="M62.9624 30.6911H7.03772C7.06843 30.6481 7.10118 30.6051 7.13393 30.5622C7.23833 30.425 7.34273 30.2879 7.44917 30.1528C7.47374 30.1221 7.4983 30.0893 7.52491 30.0586H62.4752C62.5018 30.0893 62.5264 30.1221 62.5509 30.1528C62.6574 30.2879 62.7618 30.425 62.8662 30.5622C62.8989 30.6051 62.9317 30.6481 62.9624 30.6911Z" fill="#F2B035"/>
<path d="M64.3976 32.7387H5.60303C5.63169 32.6957 5.6583 32.6527 5.68696 32.6097C5.77702 32.4726 5.86709 32.3354 5.95921 32.2003C5.98991 32.1574 6.01857 32.1123 6.04928 32.0693H63.9514C63.9821 32.1123 64.0107 32.1574 64.0414 32.2003C64.1336 32.3354 64.2236 32.4726 64.3137 32.6097C64.3424 32.6527 64.369 32.6957 64.3976 32.7387Z" fill="#F2B035"/>
<path d="M65.6269 34.7856H4.37585C4.39837 34.7426 4.42294 34.6996 4.4475 34.6566C4.52324 34.5195 4.60103 34.3823 4.67881 34.2472C4.71157 34.1899 4.74432 34.1346 4.77707 34.0793H65.2257C65.2584 34.1346 65.2912 34.1899 65.3239 34.2472C65.4017 34.3823 65.4795 34.5195 65.5552 34.6566C65.5798 34.6996 65.6044 34.7426 65.6269 34.7856Z" fill="#F2B035"/>
<path d="M66.6751 36.8328H3.32385C3.34432 36.7898 3.36479 36.7468 3.38526 36.7038C3.45077 36.5667 3.51627 36.4295 3.58382 36.2944C3.61862 36.2248 3.65138 36.1552 3.68822 36.0876H66.3128C66.3476 36.1552 66.3804 36.2248 66.4152 36.2944C66.4827 36.4295 66.5482 36.5667 66.6137 36.7038C66.6342 36.7468 66.6547 36.7898 66.6751 36.8328Z" fill="#F2B035"/>
<path d="M67.5632 38.8796H2.43921C2.45559 38.8366 2.47401 38.7936 2.49038 38.7507C2.54565 38.6135 2.60092 38.4764 2.65824 38.3413C2.69099 38.2594 2.72579 38.1795 2.76059 38.0977H67.2418C67.2766 38.1795 67.3114 38.2594 67.3442 38.3413C67.4015 38.4764 67.4568 38.6135 67.512 38.7507C67.5284 38.7936 67.5468 38.8366 67.5632 38.8796Z" fill="#F2B035"/>
<path d="M68.2954 40.9265H1.70166C1.71394 40.8835 1.72827 40.8405 1.7426 40.7975C1.78764 40.6604 1.83267 40.5232 1.87975 40.3881C1.9125 40.2939 1.94321 40.2018 1.97596 40.1077H68.0211C68.0539 40.2018 68.0846 40.2939 68.1173 40.3881C68.1644 40.5232 68.2094 40.6604 68.2545 40.7975C68.2688 40.8405 68.2831 40.8835 68.2954 40.9265Z" fill="#F2B035"/>
<path d="M68.8942 42.9733H1.10498C1.11522 42.9303 1.1275 42.8874 1.13773 42.8444C1.17458 42.7072 1.21143 42.5701 1.24827 42.435C1.27693 42.3285 1.30764 42.2241 1.33834 42.1177H68.6608C68.6916 42.2241 68.7223 42.3285 68.7509 42.435C68.7878 42.5701 68.8246 42.7072 68.8615 42.8444C68.8717 42.8874 68.884 42.9303 68.8942 42.9733Z" fill="#F2B035"/>
<path d="M69.3579 45.0212H0.643433C0.651621 44.9782 0.659809 44.9352 0.667997 44.8922C0.694608 44.7551 0.723267 44.6179 0.751925 44.4828C0.776489 44.3641 0.8031 44.2453 0.829712 44.1287H69.1716C69.1982 44.2453 69.2249 44.3641 69.2494 44.4828C69.2781 44.6179 69.3067 44.7551 69.3334 44.8922C69.3415 44.9352 69.3497 44.9782 69.3579 45.0212Z" fill="#F2B035"/>
<path d="M69.6931 47.0671H0.307251C0.311345 47.0242 0.317486 46.9812 0.323627 46.9382C0.34205 46.801 0.362521 46.6639 0.382991 46.5288C0.403461 46.3978 0.423931 46.2668 0.444402 46.1357H69.556C69.5765 46.2668 69.5969 46.3978 69.6174 46.5288C69.6379 46.6639 69.6583 46.801 69.6768 46.9382C69.6829 46.9812 69.6891 47.0242 69.6931 47.0671Z" fill="#F2B035"/>
<path d="M69.9058 49.115H0.0941162C0.0982103 49.072 0.100257 49.029 0.104351 48.986C0.114586 48.8489 0.124822 48.7117 0.139151 48.5766C0.151433 48.4333 0.165762 48.29 0.180091 48.1467H69.8198C69.8341 48.29 69.8485 48.4333 69.8608 48.5766C69.8751 48.7117 69.8853 48.8489 69.8956 48.986C69.8997 49.029 69.9017 49.072 69.9058 49.115Z" fill="#F2B035"/>
<path d="M69.9984 51.1618H0.00244141C0.00244141 51.1188 0.00244141 51.0759 0.00448843 51.0329C0.00448843 50.8957 0.0106295 50.7586 0.0147235 50.6235C0.0188176 50.4679 0.0249587 50.3123 0.0310997 50.1567H69.9697C69.9758 50.3123 69.982 50.4679 69.9861 50.6235C69.9902 50.7586 69.9943 50.8957 69.9963 51.0329C69.9984 51.0759 69.9984 51.1188 69.9984 51.1618Z" fill="#F2B035"/>
<path d="M70 52.167C70 52.3348 69.9959 52.5027 69.9918 52.6706C69.9877 52.8077 69.9836 52.9449 69.9775 53.08C69.9754 53.123 69.9754 53.1659 69.9713 53.2089H0.0286583C0.0245643 53.1659 0.0245643 53.123 0.0225173 53.08C0.0163762 52.9449 0.0122821 52.8077 0.00818809 52.6706C0.00409405 52.5027 0 52.3348 0 52.167H70Z" fill="#F2B035"/>
<path d="M69.9199 54.1768C69.9076 54.3569 69.8954 54.537 69.879 54.7172C69.8688 54.8543 69.8565 54.9915 69.8421 55.1266C69.8381 55.1696 69.834 55.2126 69.8299 55.2555H0.169659C0.165565 55.2126 0.161471 55.1696 0.157377 55.1266C0.143048 54.9915 0.130765 54.8543 0.12053 54.7172C0.104154 54.537 0.091872 54.3569 0.0795898 54.1768H69.9199Z" fill="#F2B035"/>
<path d="M69.724 56.187C69.7015 56.3815 69.6749 56.5719 69.6463 56.7643C69.6278 56.9014 69.6074 57.0386 69.5869 57.1737C69.5808 57.2167 69.5726 57.2597 69.5664 57.3026H0.434354C0.428213 57.2597 0.420025 57.2167 0.413884 57.1737C0.393414 57.0386 0.372943 56.9014 0.35452 56.7643C0.325862 56.5719 0.299251 56.3815 0.276733 56.187H69.724Z" fill="#F2B035"/>
<path d="M69.4097 58.1953C69.3728 58.4021 69.3319 58.6068 69.2909 58.8115C69.2623 58.9486 69.2336 59.0858 69.205 59.2209C69.1947 59.2639 69.1865 59.3068 69.1763 59.3498H0.822106C0.811871 59.3068 0.803683 59.2639 0.793447 59.2209C0.764789 59.0858 0.736131 58.9486 0.707472 58.8115C0.666532 58.6068 0.625592 58.4021 0.588745 58.1953H69.4097Z" fill="#F2B035"/>
<path d="M68.9743 60.2053C68.9211 60.4244 68.8637 60.6413 68.8064 60.8583C68.7696 60.9955 68.7327 61.1326 68.6938 61.2677C68.6815 61.3107 68.6693 61.3537 68.657 61.3967H1.34268C1.3304 61.3537 1.31811 61.3107 1.30583 61.2677C1.26694 61.1326 1.23009 60.9955 1.19325 60.8583C1.13593 60.6413 1.07861 60.4244 1.02539 60.2053H68.9743Z" fill="#F2B035"/>
<path d="M68.4123 62.2153C68.3406 62.4466 68.2669 62.6759 68.1891 62.9052C68.1441 63.0423 68.097 63.1774 68.0479 63.3146C68.0336 63.3576 68.0172 63.4006 68.0028 63.4435H1.99864C1.98431 63.4006 1.96793 63.3576 1.9536 63.3146C1.90447 63.1774 1.85739 63.0423 1.81236 62.9052C1.73457 62.6759 1.66088 62.4466 1.58923 62.2153H68.4123Z" fill="#F2B035"/>
<path d="M67.7133 64.2261C67.6212 64.4697 67.5271 64.7112 67.4288 64.9528C67.3735 65.0899 67.3162 65.2271 67.2589 65.3622C67.2405 65.4052 67.222 65.4481 67.2036 65.4911H2.79813C2.77971 65.4481 2.76129 65.4052 2.74286 65.3622C2.6835 65.2271 2.62618 65.0899 2.57091 64.9528C2.47266 64.7112 2.37849 64.4697 2.28638 64.2261H67.7133Z" fill="#F2B035"/>
<path d="M66.8769 66.2356C66.7602 66.4915 66.6394 66.7453 66.5166 66.9991C66.4511 67.1363 66.3835 67.2734 66.316 67.4085C66.2935 67.4515 66.273 67.4945 66.2505 67.5375H3.75078C3.72826 67.4945 3.70779 67.4515 3.68527 67.4085C3.61772 67.2734 3.55017 67.1363 3.48467 66.9991C3.36184 66.7453 3.24107 66.4915 3.12439 66.2356H66.8769Z" fill="#F2B035"/>
<path d="M65.8796 68.2444C65.7363 68.5146 65.5889 68.7828 65.4375 69.0468C65.3597 69.184 65.2798 69.3211 65.2 69.4562C65.1754 69.4992 65.1488 69.5422 65.1222 69.5852H4.87422C4.84761 69.5422 4.821 69.4992 4.79643 69.4562C4.7166 69.3211 4.63677 69.184 4.55898 69.0468C4.4075 68.7828 4.26011 68.5146 4.11682 68.2444H65.8796Z" fill="#F2B035"/>
<path d="M64.7204 70.2544C64.5423 70.5369 64.3622 70.8153 64.1779 71.0937C64.0879 71.2308 63.9958 71.368 63.9016 71.5031C63.8729 71.5461 63.8422 71.5891 63.8115 71.632H6.18781C6.1571 71.5891 6.1264 71.5461 6.09774 71.5031C6.00358 71.368 5.91146 71.2308 5.82139 71.0937C5.63716 70.8153 5.45702 70.5369 5.27893 70.2544H64.7204Z" fill="#F2B035"/>
<path d="M63.367 72.2646C63.15 72.5594 62.931 72.8521 62.7079 73.1408C62.6035 73.2779 62.497 73.4151 62.3865 73.5502C62.3517 73.5932 62.3169 73.6362 62.2821 73.6791H7.71664C7.68184 73.6362 7.64704 73.5932 7.61224 73.5502C7.5017 73.4151 7.39525 73.2779 7.29085 73.1408C7.06773 72.8521 6.8487 72.5594 6.63171 72.2646H63.367Z" fill="#F2B035"/>
<path d="M61.7934 74.2747C61.5355 74.5838 61.2694 74.8888 60.9992 75.1876C60.8763 75.3248 60.7515 75.4619 60.6245 75.597C60.5836 75.64 60.5427 75.683 60.5017 75.726H9.49809C9.45715 75.683 9.41621 75.64 9.37527 75.597C9.24836 75.4619 9.12349 75.3248 9.00067 75.1876C8.73046 74.8888 8.46435 74.5838 8.20642 74.2747H61.7934Z" fill="#F2B035"/>
<path d="M59.962 76.2847C59.6468 76.6081 59.3234 76.9233 58.9938 77.2345C58.8485 77.3737 58.7011 77.5088 58.5537 77.6439C58.5066 77.6869 58.4575 77.7319 58.4084 77.7729H11.5888C11.5397 77.7319 11.4906 77.6869 11.4435 77.6439C11.2961 77.5088 11.1487 77.3737 11.0034 77.2345C10.6738 76.9233 10.3504 76.6081 10.0352 76.2847H59.962Z" fill="#F2B035"/>
<path d="M57.818 78.2949C57.427 78.6327 57.0258 78.9623 56.6205 79.2816C56.4424 79.4208 56.2663 79.5579 56.0862 79.691C56.0289 79.734 55.9716 79.779 55.9122 79.82H14.0874C14.0281 79.779 13.9707 79.734 13.9134 79.691C13.7333 79.5579 13.5572 79.4208 13.3791 79.2816C12.9738 78.9623 12.5726 78.6327 12.1816 78.2949H57.818Z" fill="#F2B035"/>
<path d="M55.2503 80.303C54.7528 80.6612 54.2431 81.001 53.7252 81.3285C53.5082 81.4677 53.2872 81.6049 53.0661 81.7379C52.9944 81.7809 52.9207 81.8239 52.8491 81.8669H17.1531C17.0815 81.8239 17.0078 81.7809 16.9361 81.7379C16.715 81.6049 16.494 81.4677 16.277 81.3285C15.7591 81.001 15.2494 80.6612 14.752 80.303H55.2503Z" fill="#F2B035"/>
<path d="M52.0722 82.3137C51.4008 82.6904 50.7171 83.0445 50.0211 83.3761C49.7263 83.5174 49.4275 83.6525 49.1265 83.7855C49.0283 83.8285 48.928 83.8736 48.8277 83.9145H21.1724C21.0721 83.8736 20.9718 83.8285 20.8735 83.7855C20.5726 83.6525 20.2737 83.5174 19.979 83.3761C19.283 83.0445 18.5993 82.6904 17.9279 82.3137H52.0722Z" fill="#F2B035"/>
<path d="M47.8366 84.3237C46.7783 84.7434 45.6934 85.1098 44.588 85.423C44.066 85.5724 43.5399 85.7096 43.0077 85.8324C42.8153 85.8774 42.6228 85.9204 42.4284 85.9613H27.5711C27.3766 85.9204 27.1842 85.8774 26.9918 85.8324C26.4595 85.7096 25.9335 85.5724 25.4115 85.423C24.3061 85.1098 23.2212 84.7434 22.1628 84.3237H47.8366Z" fill="#F2B035"/>
<path d="M121.182 31.047L133.503 59.574L131.172 59.796L142.383 31.047H154.593L133.17 80.775L118.074 49.029L104.31 80.775L82.665 31.047H94.875L108.084 61.239L103.755 60.462L113.634 38.04L110.415 31.047H121.182ZM185.897 79.221C180.347 79.221 175.611 78.148 171.689 76.002C167.767 73.856 164.77 70.896 162.698 67.122C160.626 63.274 159.59 58.945 159.59 54.135C159.59 49.399 160.774 45.144 163.142 41.37C165.51 37.596 168.692 34.599 172.688 32.379C176.758 30.085 181.235 28.938 186.119 28.938C192.557 28.938 197.848 30.825 201.992 34.599C206.21 38.299 209.022 43.553 210.428 50.361L172.577 63.126L169.691 56.133L199.217 45.588L196.664 47.031C195.85 44.811 194.518 42.887 192.668 41.259C190.892 39.631 188.376 38.817 185.12 38.817C182.53 38.817 180.236 39.446 178.238 40.704C176.24 41.888 174.649 43.59 173.465 45.81C172.355 47.956 171.8 50.509 171.8 53.469C171.8 56.503 172.429 59.167 173.687 61.461C174.945 63.755 176.647 65.531 178.793 66.789C180.939 67.973 183.381 68.565 186.119 68.565C188.043 68.565 189.893 68.232 191.669 67.566C193.445 66.9 195.11 66.012 196.664 64.902L202.325 74.115C199.883 75.669 197.182 76.927 194.222 77.889C191.336 78.777 188.561 79.221 185.897 79.221Z" fill="#F2B035"/>
</svg>
